PathFileType	4	(X/Y/Z)	s11c0303.trc
DataRate	CameraRate	NumFrames	NumMarkers	Units	OrigDataRate	OrigDataStartFrame	OrigNumFrames
200	200	6	48	mm	200	750	2000
Frame#	Time	racr			lacr			c7			jug			rlel			rdr			llel			ldr			s2			lic			ric			lasi			rasi			rpsi			lpsi			rgt			lgt			rth1			rth2			rth3			rth4			rlfc			rmfc			rsh1			rsh2			rsh3			rsh4			rlmal			rcal			rtoe			rmt5			lth1			lth2			lth4			lth3			llfc			lmfc			llmal			lcal			lmt5			lsh1			lsh2			lsh3			lsh4			ltoe			SBIKE			LBIKE			RBIKE			
		X1	Y1	Z1	X2	Y2	Z2	X3	Y3	Z3	X4	Y4	Z4	X5	Y5	Z5	X6	Y6	Z6	X7	Y7	Z7	X8	Y8	Z8	X9	Y9	Z9	X10	Y10	Z10	X11	Y11	Z11	X12	Y12	Z12	X13	Y13	Z13	X14	Y14	Z14	X15	Y15	Z15	X16	Y16	Z16	X17	Y17	Z17	X18	Y18	Z18	X19	Y19	Z19	X20	Y20	Z20	X21	Y21	Z21	X22	Y22	Z22	X23	Y23	Z23	X24	Y24	Z24	X25	Y25	Z25	X26	Y26	Z26	X27	Y27	Z27	X28	Y28	Z28	X29	Y29	Z29	X30	Y30	Z30	X31	Y31	Z31	X32	Y32	Z32	X33	Y33	Z33	X34	Y34	Z34	X35	Y35	Z35	X36	Y36	Z36	X37	Y37	Z37	X38	Y38	Z38	X39	Y39	Z39	X40	Y40	Z40	X41	Y41	Z41	X42	Y42	Z42	X43	Y43	Z43	X44	Y44	Z44	X45	Y45	Z45	X46	Y46	Z46	X47	Y47	Z47	X48	Y48	Z48	
750	3.7500	685.063133	1413.382901	-52.680354	676.967293	1457.072708	-402.867782	625.926442	1552.227613	-223.328783	659.801102	1380.158535	-245.451280	583.341048	1130.039983	-7.484795	784.853416	950.670312	-77.687634	625.755743	1173.812345	-538.879990	797.937313	912.217668	-458.704422	80.310137	1244.929476	-272.592799	293.292172	1288.068882	-467.293689	309.964325	1246.772060	-71.831216	326.239422	1219.450129	-437.185667	344.418190	1185.485115	-115.185697	123.532544	1322.132994	-215.102740	122.098410	1322.126341	-305.426336	239.202385	1107.117717	-58.706921	208.195709	1139.098773	-486.353500	298.473895	986.428361	-56.418413	355.957670	917.129099	-74.826706	368.957931	832.325266	-93.708146	386.903662	933.441306	-85.696695	410.284317	737.320227	-115.447207	398.027342	715.388798	-236.261719	362.181059	582.514278	-91.891575	357.856781	495.708091	-106.872870	313.913320	420.481252	-103.011395	380.632503	490.956628	-139.530947	262.549858	292.431638	-105.882128	193.708888	272.176016	-148.845676	480.355422	236.013313	-149.541722	411.806134	210.047192	-78.478284	320.428789	1044.636903	-505.334125	394.315637	1002.004947	-500.332442	420.129457	1026.152356	-489.995070	439.688146	924.373824	-501.872716	508.310316	816.559131	-483.892321	523.748098	803.036078	-356.687459	150.307922	593.110716	-431.391984	89.473544	609.742798	-389.054857	151.500500	408.734161	-449.260247	405.938025	743.340518	-495.885274	352.000210	681.456712	-471.373853	269.501927	650.608099	-461.033702	372.804015	660.225266	-447.586409	221.761172	339.193682	-384.666261	-213.846930	949.190468	-255.735605	-17.830458	80.849030	-460.762168	-17.888005	80.792840	-61.793519	
751	3.7550	686.330922	1416.739731	-54.226536	676.320288	1459.731119	-406.074309	625.100419	1554.892696	-225.343364	661.020039	1382.866667	-247.476591	585.801749	1132.908503	-6.506205	785.693194	950.806417	-77.720262	625.778053	1173.764864	-538.530760	798.208255	912.115064	-458.404687	82.080783	1241.549721	-272.432997	294.008440	1288.196355	-466.399314	312.131005	1244.506983	-70.517925	327.588131	1219.845644	-435.980966	346.973994	1184.015826	-114.723971	125.178331	1318.728110	-213.355685	122.839918	1319.669741	-304.270080	240.277285	1103.912977	-58.555715	211.221192	1137.810173	-486.708457	298.025094	982.969887	-56.048761	354.617565	913.091115	-74.420484	366.781485	828.212876	-93.223719	385.829239	929.148911	-85.104616	407.005903	732.893236	-115.270158	395.925243	710.909049	-235.695215	358.358176	578.391945	-91.738252	354.199498	491.503153	-106.591234	310.401389	416.204324	-102.848326	377.152801	486.764995	-139.130709	259.273518	288.073971	-105.818966	190.243213	268.480420	-148.800662	476.647640	229.636671	-149.496647	407.759524	204.414036	-78.468431	324.812045	1045.324915	-506.214503	399.312985	1003.633385	-501.260957	424.769525	1028.102393	-490.700853	445.647604	926.463833	-502.826966	514.495241	820.297111	-484.935908	530.052948	806.320970	-357.784758	155.710161	598.174916	-431.884982	95.101443	614.983557	-389.330358	156.247495	413.589843	-449.252479	411.874220	747.653909	-496.635365	357.835200	685.906106	-472.009037	275.435381	655.458280	-461.692650	378.580277	664.591707	-448.365407	226.040979	343.820550	-384.569804	-213.885606	949.180588	-255.796937	-17.806716	80.851844	-460.758496	-17.805413	80.791117	-61.894236	
752	3.7600	687.560250	1420.190398	-55.813533	675.661102	1462.494977	-409.444452	624.296074	1557.697467	-227.853945	662.233963	1385.677474	-249.593247	588.486751	1135.838076	-5.396292	786.533594	950.842986	-77.765449	625.855561	1173.658785	-537.897680	798.432514	911.999119	-458.130108	83.891929	1238.809872	-271.889774	294.812346	1288.543921	-465.504861	313.330377	1242.265410	-70.738451	328.892249	1220.401584	-434.864734	349.583111	1182.803371	-114.136171	126.555412	1315.962751	-212.368922	123.691291	1317.716133	-303.034118	241.245956	1101.072598	-58.441391	214.269899	1137.115260	-487.111236	297.379221	979.846764	-55.688531	353.012515	909.500156	-74.013243	364.263861	824.261726	-92.759020	384.412247	925.127974	-84.345510	403.245285	728.810265	-114.975933	394.207940	706.939867	-234.683656	354.208956	574.444811	-91.434863	350.188308	487.603028	-106.237419	306.368545	412.199002	-102.716748	373.363582	482.738782	-138.710974	255.610255	284.082761	-106.024460	186.601225	265.350995	-148.847917	472.536992	223.728841	-149.475192	403.467282	198.860238	-78.502805	328.992587	1046.449172	-507.040005	404.034460	1005.721682	-502.137043	429.129755	1030.404627	-491.242293	451.334047	929.119085	-503.845290	520.479521	824.235732	-485.942948	536.273234	809.994591	-358.993870	161.174714	602.949426	-432.161008	100.762846	620.028473	-389.553507	161.177223	418.451269	-449.187476	417.768432	752.070366	-497.233123	363.561301	690.387950	-472.601840	281.189700	660.085495	-461.909570	384.387991	668.963962	-448.998087	230.556554	348.356000	-384.461994	-213.846198	949.193173	-255.778133	-17.796613	80.838714	-460.752482	-17.871978	80.803261	-61.789799	
753	3.7650	688.646352	1423.719608	-57.545313	675.002719	1465.321485	-412.902563	623.682291	1560.404183	-230.183207	664.198793	1388.988675	-251.386154	591.301488	1138.862504	-4.316398	787.383278	950.786196	-77.867440	625.938877	1173.644550	-537.537347	798.630641	911.936010	-457.829017	85.583006	1236.945538	-271.086578	295.597166	1289.065645	-464.524546	315.088888	1240.319200	-70.021545	330.218511	1221.031689	-433.762691	351.998047	1181.711335	-113.596758	128.070498	1313.809117	-211.247324	124.670856	1316.327725	-301.636221	242.171185	1098.557183	-58.291910	216.921799	1137.128422	-487.211895	297.166687	976.839795	-56.261080	350.891478	906.208634	-73.559014	361.178906	820.881203	-92.276229	382.921086	921.390542	-83.761355	398.856001	725.031035	-114.752761	390.569046	703.870149	-233.927985	349.684166	570.745792	-91.114160	345.809126	483.947441	-105.859598	302.074514	408.483490	-102.510278	369.131125	479.065759	-138.169919	251.847334	280.258793	-105.912113	183.215561	262.153424	-149.433738	468.314846	217.688499	-149.407358	399.039267	193.555657	-78.554381	332.821238	1048.019617	-507.860528	408.381716	1008.186926	-502.856247	433.108329	1033.113883	-491.614866	456.484481	932.249877	-505.002296	526.256416	828.295540	-486.878490	542.518730	813.851567	-359.647366	166.740904	607.724714	-432.330002	106.439466	624.882442	-389.720658	166.266074	423.093236	-449.100618	423.437054	756.677398	-497.793345	369.215397	695.098620	-473.114544	286.838824	664.840940	-462.254520	390.006482	673.476513	-449.779409	235.331513	352.929950	-384.381305	-213.885193	949.358227	-256.138269	-17.788909	80.860804	-460.751881	-17.797025	80.796188	-61.888985	
754	3.7700	689.561479	1427.262805	-59.385334	674.251001	1468.266927	-416.445942	623.146481	1563.186268	-232.815451	665.357403	1391.930431	-253.574362	594.241029	1141.928931	-3.298180	788.410053	950.667659	-77.758247	626.065234	1173.728393	-537.194153	798.949409	912.087746	-457.606602	87.197716	1235.927618	-270.130772	296.453160	1289.908196	-463.569480	317.228486	1238.765543	-68.962776	331.501504	1221.859577	-432.684593	354.387258	1180.855379	-113.058435	129.691359	1312.265322	-209.752196	125.849142	1315.429362	-300.097671	242.982696	1096.557416	-58.199791	219.337272	1137.928098	-487.181933	296.049023	974.663388	-55.869585	348.620277	903.204828	-72.994805	357.625925	817.823093	-91.707581	381.052569	918.061796	-83.020215	393.924103	721.654986	-114.328271	387.905327	700.829086	-233.022180	344.658639	567.415004	-90.775840	341.066860	480.458510	-105.489999	297.489934	405.021580	-102.287587	364.630191	475.671105	-137.536801	247.927875	276.589050	-105.905145	179.223622	259.370841	-149.549966	463.836916	212.240873	-149.199927	394.293808	188.418355	-78.507747	336.276447	1049.910690	-508.472334	412.289772	1011.024227	-503.436457	436.633405	1036.166410	-491.700424	461.315963	935.639917	-505.961356	531.731660	832.420636	-487.755646	548.608560	818.041264	-360.122256	172.337507	612.269682	-432.412965	112.101351	629.541880	-389.811886	171.515553	427.560505	-449.088997	428.895811	761.405816	-498.340796	374.762157	699.763559	-473.567830	292.413242	669.456708	-462.242755	395.673330	677.950210	-450.411709	240.264483	357.267277	-384.329566	-213.882447	949.371911	-256.071728	-17.780303	80.861104	-460.747232	-17.849503	80.786557	-61.794615	
755	3.7750	690.351819	1430.818790	-61.359826	673.568532	1471.242419	-420.047151	622.748920	1566.037671	-235.547437	666.474197	1394.767277	-255.776106	597.353028	1145.109346	-2.318303	789.489150	950.306363	-77.829086	626.245204	1173.939022	-536.799223	799.414147	912.265907	-457.480235	88.855819	1235.281612	-269.120236	297.393094	1290.952029	-462.459035	319.158783	1237.528546	-68.249911	332.792847	1222.790850	-431.640321	356.783455	1180.378462	-112.548867	131.434571	1311.309822	-208.025826	127.101236	1314.906226	-298.436794	243.800579	1095.039822	-58.014209	221.582894	1139.341851	-486.945451	294.611099	972.852614	-55.469451	345.955984	900.621315	-72.413713	353.582407	815.156840	-91.262840	378.909773	914.940572	-82.199169	388.467336	718.501282	-113.826333	384.236455	698.017956	-232.271511	339.223088	564.385362	-90.438051	336.050734	477.333393	-105.006099	292.578346	401.834528	-102.013316	359.804318	472.690815	-136.904890	243.772877	273.201203	-105.897088	175.191380	257.127422	-149.552524	459.234486	206.440065	-149.104043	389.419479	183.467658	-78.439980	339.290805	1052.141661	-508.848373	415.693731	1014.077143	-503.800663	439.669509	1039.442239	-491.618225	465.879993	939.375683	-506.645046	537.056116	836.601922	-488.528105	554.563772	822.200369	-360.505738	177.813572	616.595850	-432.366446	117.793196	633.986064	-389.788105	177.006931	432.043542	-449.103619	434.277340	766.186741	-498.662409	380.173860	704.477705	-473.906845	297.901480	674.236472	-462.453996	401.172272	682.628969	-450.905755	245.524312	361.557354	-384.311859	-213.882450	949.372094	-256.071790	-17.767364	80.853426	-460.757821	-17.837816	80.777603	-61.782003	
